<?xml version="1.0" standalone="no"?>
<!DOCTYPE svg PUBLIC "-//W3C//DTD SVG 20010904//EN"
 "http://www.w3.org/TR/2001/REC-SVG-20010904/DTD/svg10.dtd">
<svg version="1.0" xmlns="http://www.w3.org/2000/svg"
 width="80.000000pt" height="80.000000pt" viewBox="0 0 80.000000 80.000000"
 preserveAspectRatio="xMidYMid meet">

<g transform="translate(0.000000,80.000000) scale(0.100000,-0.100000)"
fill="#000000" stroke="none">
<path d="M226 749 c-42 -118 -38 -113 -98 -134 -31 -11 -58 -24 -60 -29 -1 -5
24 -18 57 -30 59 -21 60 -22 81 -79 22 -63 34 -71 48 -31 9 28 0 46 -13 25 -6
-9 -13 0 -23 30 -15 44 -21 50 -78 72 l-35 14 43 13 c49 15 55 21 72 75 l13
40 14 -35 c22 -57 27 -63 71 -78 30 -10 39 -17 35 -29 -5 -12 -1 -14 18 -8 33
10 46 23 28 29 -119 42 -113 38 -134 98 -23 63 -32 77 -39 57z"/>
<path d="M300 690 c0 -5 5 -10 10 -10 6 0 10 5 10 10 0 6 -4 10 -10 10 -5 0
-10 -4 -10 -10z"/>
<path d="M450 670 c0 -5 5 -10 10 -10 6 0 10 5 10 10 0 6 -4 10 -10 10 -5 0
-10 -4 -10 -10z"/>
<path d="M330 650 c0 -5 5 -10 10 -10 6 0 10 5 10 10 0 6 -4 10 -10 10 -5 0
-10 -4 -10 -10z"/>
<path d="M491 543 c-13 -47 -13 -53 -1 -53 6 0 10 7 10 15 0 34 18 11 35 -45
10 -33 23 -64 29 -69 6 -5 37 -17 69 -27 31 -10 57 -21 57 -24 0 -3 -26 -14
-57 -24 -32 -10 -63 -22 -69 -27 -6 -5 -19 -36 -29 -69 -10 -33 -21 -60 -25
-60 -4 0 -15 27 -25 60 -10 33 -23 64 -29 69 -6 5 -37 17 -68 27 -32 10 -58
20 -58 24 0 3 12 11 28 16 15 5 23 12 17 15 -13 7 -105 -19 -105 -30 0 -4 39
-21 88 -37 l87 -29 29 -87 c16 -49 32 -88 36 -88 4 0 20 39 36 87 l29 88 88
29 c48 15 87 32 87 36 0 4 -39 20 -87 36 l-88 29 -29 88 c-16 48 -33 87 -37
87 -4 0 -13 -17 -18 -37z"/>
<path d="M640 570 c0 -5 5 -10 10 -10 6 0 10 5 10 10 0 6 -4 10 -10 10 -5 0
-10 -4 -10 -10z"/>
<path d="M70 440 c0 -5 5 -10 10 -10 6 0 10 5 10 10 0 6 -4 10 -10 10 -5 0
-10 -4 -10 -10z"/>
<path d="M110 429 c0 -5 5 -7 10 -4 6 3 10 8 10 11 0 2 -4 4 -10 4 -5 0 -10
-5 -10 -11z"/>
<path d="M620 430 c0 -5 5 -10 10 -10 6 0 10 5 10 10 0 6 -4 10 -10 10 -5 0
-10 -4 -10 -10z"/>
<path d="M150 419 c0 -5 5 -7 10 -4 6 3 10 8 10 11 0 2 -4 4 -10 4 -5 0 -10
-5 -10 -11z"/>
<path d="M60 330 c0 -5 5 -10 10 -10 6 0 10 5 10 10 0 6 -4 10 -10 10 -5 0
-10 -4 -10 -10z"/>
<path d="M179 280 c-14 -47 -21 -53 -71 -69 -49 -16 -48 -27 2 -42 47 -14 53
-21 69 -71 7 -21 16 -38 21 -38 5 0 14 17 21 38 16 50 22 57 69 71 47 14 51
25 11 39 -32 11 -42 7 -35 -13 3 -7 -5 -15 -20 -19 -16 -4 -28 -16 -32 -31 -8
-32 -20 -32 -28 0 -4 15 -16 27 -31 31 -14 3 -25 10 -25 14 0 4 11 11 25 14
15 4 27 16 31 31 5 19 11 24 25 20 22 -7 22 -7 8 34 -15 42 -26 39 -40 -9z"/>
<path d="M650 240 c0 -5 5 -10 10 -10 6 0 10 5 10 10 0 6 -4 10 -10 10 -5 0
-10 -4 -10 -10z"/>
<path d="M690 230 c0 -5 5 -10 11 -10 5 0 7 5 4 10 -3 6 -8 10 -11 10 -2 0 -4
-4 -4 -10z"/>
<path d="M225 220 c-3 -5 -1 -10 4 -10 6 0 11 5 11 10 0 6 -2 10 -4 10 -3 0
-8 -4 -11 -10z"/>
<path d="M610 210 c0 -5 5 -10 10 -10 6 0 10 5 10 10 0 6 -4 10 -10 10 -5 0
-10 -4 -10 -10z"/>
<path d="M620 170 c0 -5 5 -10 10 -10 6 0 10 5 10 10 0 6 -4 10 -10 10 -5 0
-10 -4 -10 -10z"/>
<path d="M630 129 c0 -5 5 -7 10 -4 6 3 10 8 10 11 0 2 -4 4 -10 4 -5 0 -10
-5 -10 -11z"/>
<path d="M270 120 c0 -5 5 -10 10 -10 6 0 10 5 10 10 0 6 -4 10 -10 10 -5 0
-10 -4 -10 -10z"/>
</g>
</svg>
